<svg xmlns="http://www.w3.org/2000/svg" viewBox="0 0 407 407.06"><defs><style>.cls-1{fill:#fff;}</style></defs><title>Element 1</title><g id="Ebene_2" data-name="Ebene 2"><g id="Ebene_1-2" data-name="Ebene 1"><path class="cls-1" d="M203.9,407c-3,0-6,.06-9,0a200.67,200.67,0,0,1-31.47-3.65c-9.08-1.68-17.72-4.55-26.4-7.36a180.22,180.22,0,0,1-34.51-15.67,260,260,0,0,1-25-16.67,99.09,99.09,0,0,1-8.65-7.43q-7.59-7.11-14.78-14.64a154.24,154.24,0,0,1-15-18.42C35.51,318,31.79,313,28.52,307.7c-2.49-4-4.38-8.45-6.53-12.7-.67-1.32-1.29-2.67-2-4-4.26-8.35-7.32-17.14-10.17-26.07-2.59-8.1-4.44-16.36-6.53-24.56a66.36,66.36,0,0,1-1.26-9.76c-.41-4.09-.26-8.3-1.14-12.28C-.5,211.91.19,205.47,0,199s1-12.75,1.92-19.09c.52-3.58.64-7.21,1.19-10.79s1.3-7.08,2.12-10.58a227.66,227.66,0,0,1,7.68-25.28A184.57,184.57,0,0,1,29.3,99.1,193.88,193.88,0,0,1,42,80.27c1.73-2.2,3.22-4.61,5.1-6.65,5.85-6.35,11.66-12.75,17.82-18.8a175.13,175.13,0,0,1,25.4-20.23,197.61,197.61,0,0,1,33.42-18,214.47,214.47,0,0,1,25-8.8C154.85,6,161,4.5,167.26,3.2c3.52-.73,7.19-.75,10.77-1.21,4.38-.56,8.73-1.3,13.11-1.88a31.47,31.47,0,0,1,4-.1c3.5,0,7,0,10.5,0,9.57,0,18.94,1.56,28.4,2.72C242.72,3.78,251,6,259.48,8a141.09,141.09,0,0,1,24.06,8.4,205.23,205.23,0,0,1,22.05,11,215.34,215.34,0,0,1,43.36,33.42c9.78,10.24,18.9,21.08,26.26,33.37a268.71,268.71,0,0,1,14,25.52,163.07,163.07,0,0,1,8.41,21,282.57,282.57,0,0,1,7.08,29.5c.86,4.61.87,9.53,1.52,14.18,1.35,9.64.37,19.23.73,28.83.21,5.61-.85,11.1-1.79,16.62-.61,3.54-.42,7.19-1.15,10.79-1.33,6.56-3,13-4.66,19.5-2.76,10.5-6.92,20.48-11.49,30.31a194.66,194.66,0,0,1-23.94,39c-2.26,2.85-4.7,5.56-7.15,8.25-4.13,4.53-8.29,9-12.53,13.46-5.05,5.26-11,9.44-16.68,14a185.33,185.33,0,0,1-39.15,23.86c-7.86,3.64-15.87,7-24.39,9-3.33.78-6.6,1.86-9.86,2.93-7.21,2.37-14.74,2.87-22.15,4.12A146.25,146.25,0,0,1,203.9,407Zm53-49c9-3.56,17.32-6.94,25.25-11.42A160.24,160.24,0,0,0,315,322.71c7.55-7.27,14.86-14.8,20.88-23.38a173,173,0,0,0,23.94-48.52c3-9.77,4.57-19.78,6.14-29.79a125,125,0,0,0,1-16.33c.06-2.61-.68-5.23-.69-7.84a132.71,132.71,0,0,0-2-20.65,142.42,142.42,0,0,0-3.81-17.26,155.06,155.06,0,0,0-15.9-37.13c-4.54-7.5-9.22-14.94-14.94-21.55S318.07,87,311.21,81.36A212,212,0,0,0,294,68a160.19,160.19,0,0,0-35.23-17.71,154.6,154.6,0,0,0-30-7.54c-3.62-.51-7.28-.39-10.82-1-8.44-1.55-16.94-1.08-25.32-.51a151.12,151.12,0,0,0-19.5,2.49,178,178,0,0,0-24.64,6.67A145.41,145.41,0,0,0,120.8,63.58c-9.74,6-19.15,12.44-27.31,20.5C88.18,89.33,83,94.74,78.12,100.4a143.15,143.15,0,0,0-17.85,26.13,158.52,158.52,0,0,0-14,35.74c-3,12-5.14,24.12-5.25,36.51-.06,6.77-.31,13.54.69,20.34.74,5,1.17,10.09,2.09,15.12A149.38,149.38,0,0,0,54.74,269.4,174.93,174.93,0,0,0,76.2,305a168.56,168.56,0,0,0,33.31,31.72,146.25,146.25,0,0,0,29.27,16.59A140.25,140.25,0,0,0,162,361.22c6.87,1.6,13.67,3.44,20.76,4,4.9.37,9.77,1.21,14.66,1.72a33.14,33.14,0,0,0,4.67-.19c0-1.77,0-3.25,0-4.72,0-8.67-.32-17.34.06-26,.28-6.18-2.39-10.64-6.86-14.12-2.85-2.21-5.84-5-10.11-3.67-.41,2.92-1,5.66-1.14,8.42-.35,6.07-2.27,11.28-7.45,14.76-5,3-10.5,2.68-16,2.54-6.68-.17-13.62-4.16-15.56-11.52a57.5,57.5,0,0,1-1.87-12.62c-.28-8.49-.07-17-.1-25.49a27,27,0,0,0-.48-3.46h-7.74V262.53c2.89-1.17,5.7.34,8.09-1.08V251.33a8.38,8.38,0,0,0-1.68-1.2c-6.95-2.63-9.19-5.63-9.29-12.84-.06-4.33,0-8.66.09-13a23.73,23.73,0,0,0-1.49-9.23,127.21,127.21,0,0,1-4.1-12.12c-1.82-6.61-2.16-13.18.33-19.85A16.65,16.65,0,0,1,139.15,172c1.38-.35,2.7-.94,4-1.4,0-20.73-.09-41.06.05-61.39,0-6.58.81-13.12,3.36-19.32a34.4,34.4,0,0,1,11.7-15c7.43-5.45,16-7.91,24.84-8.68A99.1,99.1,0,0,1,214.22,68,96.5,96.5,0,0,1,236.45,76a156.18,156.18,0,0,1,14.69,9.11A76.42,76.42,0,0,1,268,100.8c0,2.67,0,5.16,0,7.66s0,4.88-.06,7.49h-78.4L187,118.78c-.31,8.88-.72,17.49-.87,26.1s0,17.24,0,26.05H201.2l3-9.57c4.65,1.29,8.88,2.57,13.17,3.62,7.8,1.91,15.63,3.66,23.44,5.51,5.1,1.21,10.2,2.4,15.27,3.74,3.27.86,6.47,2,9.65,3l-2,6.06-5.56,2.9c-.75,30.31.14,60.09-1,89.86-.83,22.13-.24,44.32-.33,66.48,0,1.63-.4,3.25-.55,4.88C256,350.77,255.51,354.2,256.94,358Zm-64.19-96v28.81l-7.58.34v9.57H201.8V252.39c-5.31-.85-13.5-.72-16.86.25,0,3.06-.41,6.17.35,9.4Z"/></g></g></svg>